<?xml version="1.0" standalone="no"?>
<!DOCTYPE svg PUBLIC "-//W3C//DTD SVG 20010904//EN"
 "http://www.w3.org/TR/2001/REC-SVG-20010904/DTD/svg10.dtd">
<svg version="1.0" xmlns="http://www.w3.org/2000/svg"
 width="800.000000pt" height="800.000000pt" viewBox="0 0 800.000000 800.000000"
 preserveAspectRatio="xMidYMid meet">
<metadata>
Created by potrace 1.16, written by Peter Selinger 2001-2019
</metadata>
<g transform="translate(0.000000,800.000000) scale(0.100000,-0.100000)"
fill="#000000" stroke="none">
<path d="M4240 5416 c-120 -21 -241 -57 -262 -78 -14 -14 -17 -27 -12 -58 l7
-40 -52 0 c-89 0 -151 -47 -151 -113 0 -48 -11 -65 -45 -71 -20 -4 -44 -19
-59 -37 -22 -26 -26 -40 -26 -95 0 -63 -1 -65 -50 -119 -42 -46 -50 -62 -50
-93 0 -50 61 -176 151 -309 l70 -104 -33 -39 c-184 -215 -287 -330 -369 -411
-95 -95 -99 -98 -281 -188 -224 -111 -304 -171 -680 -510 -61 -55 -59 -56 -73
19 -13 73 -59 199 -108 293 -182 359 -585 657 -888 657 l-67 0 -12 73 c-84
515 -257 794 -573 925 -97 41 -292 91 -365 94 l-57 3 -6 -45 c-9 -63 -1 -107
22 -113 17 -5 17 -8 2 -63 -11 -38 -17 -101 -17 -174 -1 -111 0 -118 32 -182
33 -67 73 -108 140 -142 24 -12 32 -23 32 -42 0 -39 28 -222 56 -369 l26 -130
-28 -51 c-25 -47 -30 -51 -50 -42 -35 16 -53 3 -85 -65 -90 -194 -74 -537 37
-759 26 -52 29 -62 14 -53 -5 3 -19 1 -31 -6 -19 -9 -21 -17 -17 -60 3 -28 19
-77 36 -111 43 -82 16 -56 -65 63 -37 55 -70 99 -74 99 -11 0 -22 -86 -15
-121 13 -66 186 -298 346 -463 354 -365 761 -590 1310 -726 69 -17 185 -51
259 -76 114 -40 146 -46 210 -46 138 0 271 50 475 176 497 308 887 766 1192
1401 34 72 64 123 67 115 3 -8 17 -71 32 -140 100 -455 313 -859 610 -1155
123 -123 225 -198 348 -255 117 -55 185 -71 327 -77 150 -6 212 4 475 83 99
30 290 76 425 103 135 28 281 59 325 72 291 79 554 245 722 456 71 89 128 143
151 143 17 0 14 17 -4 24 -31 12 -125 6 -157 -10 -18 -9 -54 -37 -81 -63 l-48
-46 5 40 c3 22 11 100 18 173 l13 133 31 19 c90 56 184 199 216 330 19 75 16
258 -5 345 -22 90 -93 236 -148 302 -57 68 -109 109 -188 147 -59 28 -74 31
-162 31 -61 0 -97 4 -95 10 2 6 44 30 93 56 159 80 313 98 490 57 71 -16 103
-19 130 -12 19 5 35 14 35 19 0 36 -340 68 -492 45 -353 -51 -637 -270 -755
-582 l-29 -76 -51 -6 c-117 -14 -274 -79 -390 -161 -33 -24 -104 -90 -158
-146 -53 -56 -100 -98 -104 -93 -5 5 -34 43 -65 86 -70 92 -159 178 -337 323
-278 227 -418 387 -480 551 -9 21 -5 26 30 44 21 11 63 29 93 40 121 45 162
86 187 188 7 26 27 61 50 86 50 54 66 118 51 202 -6 31 -17 65 -25 73 -12 13
-14 36 -9 106 5 77 3 98 -15 140 -14 34 -22 82 -26 150 -9 173 -45 285 -92
285 -34 0 -146 44 -179 70 -22 18 -50 30 -67 30 -16 0 -57 10 -91 21 -44 15
-92 22 -167 24 -58 2 -136 6 -175 9 -40 3 -102 -1 -145 -8z m157 -68 c49 -51
163 -200 163 -212 -1 -35 -16 -37 -86 -16 -108 33 -111 35 -141 97 -35 73 -59
83 -125 54 -46 -19 -48 -22 -48 -60 0 -33 -4 -40 -25 -45 -35 -9 -31 -24 8
-30 144 -23 180 -31 242 -55 39 -15 97 -44 128 -65 54 -36 157 -140 157 -158
0 -5 -7 -19 -16 -33 l-15 -23 -44 29 c-24 17 -73 43 -107 58 -73 33 -304 109
-359 117 -47 8 -112 -3 -107 -18 2 -6 60 -28 128 -49 164 -50 275 -106 350
-176 33 -30 60 -59 60 -63 0 -5 -18 -23 -41 -41 l-40 -32 -32 30 c-63 58 -160
101 -291 129 -89 19 -286 29 -306 15 -8 -5 -12 -12 -10 -15 3 -2 50 -10 105
-16 122 -14 235 -49 298 -91 52 -34 127 -114 127 -135 0 -28 -65 -15 -131 26
-35 22 -79 47 -97 56 -38 17 -183 21 -325 9 l-87 -7 -16 37 c-21 50 -6 91 51
138 l45 38 0 73 c0 81 7 92 72 119 43 18 55 37 56 92 2 54 37 85 96 85 58 0
96 29 96 75 0 43 15 54 107 75 113 26 125 25 160 -12z m364 -62 c12 -15 42
-36 66 -47 31 -13 43 -24 43 -39 0 -26 42 -51 131 -79 77 -25 104 -52 115
-117 4 -28 0 -54 -15 -92 -12 -29 -21 -70 -21 -91 0 -47 -24 -77 -172 -221
-60 -58 -108 -113 -108 -122 0 -10 9 -22 20 -28 17 -9 28 -7 55 10 91 56 -11
-51 -113 -120 -35 -23 -66 -40 -68 -37 -7 7 33 169 44 176 15 10 32 48 32 75
0 18 9 29 37 43 48 23 76 72 75 129 0 40 5 48 79 129 43 48 79 95 79 106 0 16
-26 39 -45 39 -4 0 -40 -32 -80 -70 l-73 -71 -33 43 c-30 37 -34 48 -31 91 2
26 -2 63 -9 80 -15 37 -70 119 -134 197 -40 49 -43 56 -29 71 14 15 19 15 74
-5 35 -13 67 -33 81 -50z m-3900 -442 c135 -99 246 -289 313 -534 20 -76 76
-377 76 -412 0 -22 19 -4 22 20 l3 27 90 -1 c133 -2 263 -54 434 -172 105 -73
267 -243 347 -362 109 -164 158 -300 172 -478 8 -92 24 -112 33 -39 3 33 12
54 30 70 13 12 65 59 114 103 276 251 423 358 594 433 62 27 134 63 159 80 61
39 196 179 394 407 189 218 294 319 374 359 50 25 70 30 137 30 66 -1 78 2 83
18 4 13 11 16 22 11 31 -12 219 -17 251 -6 37 13 37 16 11 -97 l-21 -87 -92
-22 c-51 -12 -122 -27 -158 -33 -97 -16 -125 -36 -144 -106 -45 -161 -61 -206
-107 -296 -59 -116 -122 -204 -172 -242 -34 -26 -44 -28 -179 -34 -83 -4 -152
-12 -165 -20 -13 -7 -37 -43 -56 -85 -51 -112 -52 -112 -268 -121 -119 -5
-186 -11 -190 -19 -10 -15 -10 -128 0 -144 12 -18 367 -2 400 19 13 8 41 51
63 96 45 92 62 103 156 103 47 0 54 -2 49 -17 -3 -10 -10 -38 -15 -63 -24
-109 -80 -235 -134 -304 -46 -58 -131 -108 -238 -139 -384 -113 -422 -130
-441 -203 -9 -33 -18 -46 -36 -51 -45 -11 -375 5 -452 22 -151 34 -329 122
-399 199 -14 14 -28 26 -32 26 -4 0 -10 -27 -14 -60 -10 -88 49 -311 140 -523
6 -15 -5 -12 -61 16 -286 145 -686 502 -960 857 -83 107 -185 253 -181 257 3
2 53 -10 113 -27 121 -34 253 -48 297 -31 25 10 27 14 27 68 0 96 -3 101 -61
95 l-49 -5 0 111 c0 255 -37 597 -84 782 -51 197 -133 389 -222 513 -19 26
-31 47 -28 47 4 0 28 -16 55 -36z m-270 -406 l57 -11 16 -101 c8 -56 18 -129
22 -162 l6 -61 -47 -44 c-26 -24 -50 -45 -54 -47 -9 -3 -43 148 -71 311 -24
144 -24 141 -2 132 9 -4 42 -12 73 -17z m4802 -1267 c18 -20 61 -74 96 -121
35 -47 84 -105 107 -130 l44 -46 -34 -64 c-40 -77 -91 -217 -104 -289 -8 -45
-7 -53 9 -61 21 -12 119 -13 135 -2 6 4 19 40 28 81 10 41 31 111 49 155 29
75 32 78 38 51 41 -173 65 -230 134 -318 25 -32 73 -77 105 -100 32 -23 59
-45 59 -48 1 -3 -18 -15 -41 -25 -61 -27 -134 -79 -200 -140 -36 -35 -65 -54
-81 -54 -69 0 -422 121 -656 224 l-96 42 -8 54 c-15 110 -90 193 -224 247 -92
37 -89 28 -64 205 11 85 21 166 21 180 0 14 8 36 18 48 l18 22 75 -32 c177
-77 190 -81 220 -75 16 4 36 17 45 30 8 12 30 92 49 176 19 85 37 160 40 167
5 14 155 -107 218 -177z m1291 161 c76 -28 156 -75 217 -130 43 -39 49 -49 49
-84 0 -59 -28 -156 -61 -215 -59 -103 -202 -204 -329 -233 -30 -6 -118 -14
-195 -17 -293 -11 -496 61 -534 188 -13 41 -12 42 34 111 120 174 327 340 487
388 87 27 248 23 332 -8z"/>
</g>
</svg>
