<?xml version="1.0" standalone="no"?>
<!DOCTYPE svg PUBLIC "-//W3C//DTD SVG 20010904//EN"
 "http://www.w3.org/TR/2001/REC-SVG-20010904/DTD/svg10.dtd">
<svg version="1.0" xmlns="http://www.w3.org/2000/svg"
 width="820.000000pt" height="483.000000pt" viewBox="0 0 820.000000 483.000000"
 preserveAspectRatio="xMidYMid meet">
<metadata>
Created by potrace 1.16, written by Peter Selinger 2001-2019
</metadata>
<g transform="translate(0.000000,483.000000) scale(0.100000,-0.100000)"
fill="#000000" stroke="none">
<path d="M6024 4391 c-33 -16 -76 -42 -96 -60 -37 -32 -128 -197 -128 -233 0
-12 -8 -22 -22 -26 -21 -5 -21 -6 8 -29 l29 -23 -39 0 -40 0 30 -32 c19 -20
23 -29 12 -25 -10 4 -26 10 -35 14 -16 6 -16 4 1 -15 11 -12 27 -22 38 -22 23
0 23 -21 -1 -51 -10 -13 -22 -35 -26 -49 -7 -23 -7 -24 10 -10 17 14 17 13 10
-10 -9 -31 -32 -58 -56 -65 -11 -4 -24 -15 -29 -25 -8 -16 -8 -18 5 -14 24 9
18 -12 -7 -25 -20 -10 -15 -11 30 -7 45 4 53 3 48 -9 -8 -21 27 -19 53 3 12 9
28 35 36 57 12 35 14 37 15 13 0 -15 -7 -46 -16 -68 -13 -33 -21 -40 -43 -40
-14 0 -58 -9 -96 -20 -38 -11 -87 -20 -109 -20 -51 0 -168 -62 -226 -120 -25
-25 -62 -73 -82 -106 -21 -34 -57 -83 -81 -110 -52 -58 -81 -110 -73 -131 7
-16 -40 -110 -77 -156 -19 -24 -36 -30 -132 -48 -264 -48 -423 -95 -433 -126
-8 -29 43 -38 236 -41 105 -2 192 -8 192 -13 0 -5 -12 -32 -26 -61 l-26 -53
32 -90 c18 -50 34 -97 37 -106 4 -13 -6 -17 -46 -22 -63 -7 -91 -22 -91 -47 0
-28 32 -41 116 -47 53 -4 74 -10 74 -19 0 -11 -23 -14 -107 -13 -75 0 -101 3
-85 9 38 16 24 30 -30 30 l-53 0 -29 63 c-105 230 -113 239 -241 277 -160 47
-148 40 -139 74 18 72 4 262 -23 308 -39 69 -176 97 -253 52 -62 -36 -80 -75
-80 -170 0 -75 3 -85 26 -114 15 -17 31 -52 35 -77 11 -57 0 -68 -131 -120
-130 -51 -166 -86 -207 -200 -59 -160 -67 -197 -79 -364 l-7 -97 57 -121 c39
-82 55 -128 51 -142 -7 -20 -7 -20 -38 4 -18 13 -46 31 -64 40 -24 13 -33 25
-38 55 l-6 39 -182 22 c-100 12 -229 24 -287 27 -58 3 -124 7 -147 10 l-43 5
0 44 c0 40 2 44 30 50 18 4 49 0 78 -9 123 -40 319 -57 408 -35 86 22 77 77
-23 149 -69 50 -307 168 -415 206 -43 14 -78 32 -78 39 0 6 12 45 26 86 34 96
29 142 -32 297 -62 159 -94 217 -197 355 -181 243 -273 403 -239 415 24 8 42
34 42 60 0 15 7 54 14 86 8 33 12 65 9 73 -3 7 -22 23 -43 36 l-37 22 69 95
c37 52 112 162 165 243 80 123 97 157 101 196 5 57 -4 66 -55 56 -49 -9 -209
-170 -367 -367 -79 -100 -124 -148 -137 -148 -20 0 -93 -42 -104 -60 -11 -17
-34 -12 -113 28 -65 32 -87 37 -158 40 -152 7 -259 -41 -414 -184 -56 -52
-106 -94 -110 -94 -5 0 -7 -6 -4 -13 3 -8 -10 -26 -30 -41 -45 -34 -120 -165
-105 -183 6 -7 8 -16 5 -21 -3 -5 -1 -35 4 -67 10 -64 4 -81 -33 -88 -15 -3
-12 -5 11 -6 38 -1 40 -11 12 -81 -12 -31 -20 -73 -19 -108 0 -31 3 -50 6 -42
15 46 15 46 23 25 5 -11 9 -41 9 -66 1 -59 -31 -93 -87 -93 -36 1 -37 1 -9 -9
15 -6 27 -14 27 -18 0 -18 -65 -51 -122 -64 l-63 -13 57 -1 c31 -1 84 8 117
18 34 10 61 16 61 12 0 -4 -13 -27 -28 -52 -34 -52 -124 -132 -173 -153 -26
-11 -48 -36 -89 -102 -55 -88 -55 -89 -57 -174 -1 -47 -5 -137 -9 -201 -4 -84
-2 -146 10 -220 8 -57 18 -131 22 -164 3 -33 17 -114 31 -180 32 -152 37 -208
28 -290 -5 -53 -12 -71 -38 -100 -17 -20 -47 -66 -67 -103 -42 -80 -51 -83
-154 -48 -98 34 -112 33 -153 -10 l-34 -37 -103 6 -103 7 -60 -39 c-96 -62
-112 -100 -72 -171 20 -36 21 -39 5 -61 -24 -35 -20 -81 8 -108 13 -13 27 -38
31 -57 3 -19 20 -50 36 -69 25 -28 29 -39 24 -68 -10 -50 24 -84 94 -97 82
-15 131 2 131 47 0 17 -8 28 -31 37 l-30 13 58 25 c32 15 94 34 138 43 177 38
234 66 270 134 10 19 29 32 69 44 70 22 214 118 293 194 84 82 89 104 85 371
-3 240 3 288 25 202 7 -30 32 -92 55 -138 25 -50 43 -102 46 -132 7 -74 -16
-236 -44 -320 -23 -65 -25 -84 -20 -151 l7 -76 -45 -59 c-35 -46 -47 -74 -56
-124 -7 -36 -19 -81 -27 -100 -9 -19 -21 -56 -28 -82 l-13 -48 1080 0 1080 0
-14 22 c-28 45 -31 51 -34 94 -2 24 -11 58 -19 75 -15 28 -13 89 2 89 3 0 38
-31 79 -69 82 -76 187 -136 304 -173 64 -19 96 -23 215 -23 119 0 151 4 215
23 97 31 218 93 274 143 24 21 48 39 53 39 16 0 45 -128 33 -149 -18 -34 -11
-41 35 -41 50 0 56 12 25 45 -10 11 -29 57 -41 102 l-22 81 28 36 c15 20 33
36 40 36 6 0 17 11 23 25 13 29 20 30 46 10 23 -17 69 -19 97 -5 22 12 23 10
8 -24 -7 -14 -21 -26 -33 -28 -30 -4 -28 -49 3 -64 35 -18 51 -7 51 35 0 66
11 69 79 27 58 -36 63 -37 123 -30 37 4 73 15 87 25 34 27 41 24 41 -16 l0
-35 68 0 c42 1 80 7 102 18 l35 17 -3 68 -4 67 33 14 c29 12 36 12 56 -1 21
-14 23 -22 23 -103 0 -49 -4 -100 -10 -114 -5 -15 -6 -36 -1 -49 5 -14 3 -33
-5 -52 -7 -16 -13 -49 -14 -72 l0 -43 245 0 245 0 4 22 c11 54 20 147 18 192
-1 27 7 78 19 115 14 44 23 105 26 184 l6 118 39 16 c22 9 64 43 102 84 l63
68 68 -44 c127 -84 297 -233 351 -307 19 -27 48 -57 64 -66 17 -9 30 -23 30
-30 0 -7 11 -30 25 -51 14 -21 28 -56 32 -77 3 -21 13 -47 21 -57 21 -24 41
-84 32 -94 -4 -4 -12 -23 -18 -41 l-11 -32 252 0 252 0 20 83 c35 144 30 164
-83 387 -55 107 -123 247 -152 310 -57 126 -120 240 -217 396 -59 95 -62 103
-51 131 10 26 9 35 -5 57 -14 21 -25 26 -61 26 -39 0 -48 5 -88 48 -37 40 -46
57 -52 101 -4 29 -6 54 -4 56 2 1 101 59 220 128 l217 126 37 -15 c26 -11 51
-13 83 -9 68 10 283 88 291 105 4 8 23 47 43 86 20 40 37 81 37 93 0 15 18 30
70 58 39 21 94 53 121 70 59 38 70 40 94 13 10 -11 27 -20 38 -20 31 0 82 36
112 81 38 54 57 63 94 44 39 -20 85 -19 102 1 21 25 17 118 -5 143 -29 32 -74
35 -264 17 -217 -21 -226 -24 -217 -72 3 -19 9 -42 12 -50 3 -10 -31 -31 -121
-76 -119 -58 -127 -60 -140 -43 -17 24 -46 13 -46 -19 0 -31 -26 -41 -40 -16
-17 32 -40 25 -40 -12 0 -26 -6 -36 -28 -46 -15 -8 -93 -45 -174 -82 -167 -78
-164 -78 -264 -14 -29 18 -74 40 -101 50 -33 12 -55 27 -66 46 -9 15 -32 35
-51 45 -41 19 -41 21 -30 216 7 106 7 106 35 112 44 10 52 26 33 71 -13 29
-19 87 -25 219 -4 99 -11 189 -15 200 -16 40 -51 78 -122 132 -99 74 -143 142
-150 231 -6 77 10 78 28 2 7 -27 16 -48 20 -45 5 3 11 -7 13 -22 3 -20 5 -14
6 17 3 53 18 135 20 103 2 -38 21 -37 21 1 0 40 5 43 32 19 18 -16 19 -16 9
11 -6 15 -11 41 -11 58 0 31 0 31 21 12 l22 -19 -7 29 c-6 24 -4 28 10 22 16
-6 16 -5 0 16 -36 50 -40 72 -37 200 4 193 -15 259 -105 379 -53 69 -130 119
-184 119 -19 0 -62 -13 -96 -29z m-548 -1617 c7 -56 2 -340 -7 -347 -2 -2 -34
-2 -71 1 -66 4 -67 5 -73 36 -4 17 -21 73 -38 124 l-31 93 69 69 c38 38 78 71
89 73 53 11 54 9 62 -49z m-926 -1347 c0 -21 38 -56 68 -63 15 -4 37 -14 49
-22 21 -13 21 -16 9 -40 -12 -22 -12 -31 1 -58 10 -20 13 -42 9 -59 -8 -31
-48 -75 -69 -75 -8 0 -32 30 -53 67 -44 76 -148 191 -203 225 l-36 23 75 6
c137 10 150 10 150 -4z m750 -484 l70 -108 0 -117 c0 -65 -3 -118 -7 -118 -5
0 -28 16 -53 36 -35 28 -46 44 -50 72 -4 29 -10 38 -27 40 -45 7 -25 30 32 37
30 4 55 12 55 17 0 6 -11 23 -25 40 l-25 30 0 -26 c0 -38 -34 -34 -54 6 -22
44 -23 198 -1 198 9 0 47 -48 85 -107z m-2123 73 c1 -1 -2 -19 -7 -41 -13 -53
-13 -241 0 -284 5 -19 8 -37 5 -39 -9 -9 -138 203 -171 281 -19 45 -34 85 -34
89 0 6 199 0 207 -6z"/>
</g>
</svg>
