<?xml version="1.0" standalone="no"?>
<!DOCTYPE svg PUBLIC "-//W3C//DTD SVG 20010904//EN"
 "http://www.w3.org/TR/2001/REC-SVG-20010904/DTD/svg10.dtd">
<svg version="1.0" xmlns="http://www.w3.org/2000/svg"
 width="728.000000pt" height="508.000000pt" viewBox="0 0 728.000000 508.000000"
 preserveAspectRatio="xMidYMid meet">
<metadata>
Created by potrace 1.16, written by Peter Selinger 2001-2019
</metadata>
<g transform="translate(0.000000,508.000000) scale(0.100000,-0.100000)"
fill="#000000" stroke="none">
<path d="M3573 4843 c-32 -4 -33 -6 -33 -53 l0 -49 -51 -3 -50 -3 -5 -97 -5
-98 55 0 56 0 0 -124 0 -123 -82 -31 c-146 -54 -470 -181 -475 -186 -3 -3 1
-28 8 -55 l13 -51 633 0 c707 0 643 -7 658 72 l7 36 -54 20 c-29 11 -116 45
-193 75 -77 30 -179 69 -227 87 l-88 33 0 123 0 123 51 3 50 3 2 95 2 95 -52
3 -53 3 0 53 0 53 -67 0 c-38 0 -83 -2 -100 -4z"/>
<path d="M3061 3793 c22 -71 56 -184 77 -253 l39 -125 463 0 463 0 29 95 c16
52 43 140 60 195 16 55 38 126 48 158 l19 57 -618 0 -618 0 38 -127z"/>
<path d="M3018 3339 c-39 -29 -53 -80 -34 -121 31 -66 5 -63 621 -66 308 -2
579 0 602 3 74 11 115 76 88 141 -28 67 3 64 -655 64 -580 -1 -596 -1 -622
-21z"/>
<path d="M3180 3088 c-22 -1000 -50 -1348 -146 -1822 -19 -93 -34 -179 -34
-190 l0 -21 640 -1 640 0 0 21 c0 12 -16 100 -35 195 -43 215 -60 316 -79 495
-32 292 -56 704 -56 955 0 75 -3 192 -7 258 l-6 122 -459 0 c-359 0 -458 -3
-458 -12z"/>
<path d="M2892 1000 c-120 -5 -124 -6 -148 -33 -26 -30 -32 -83 -14 -118 27
-50 7 -49 912 -49 818 0 844 1 875 20 56 34 57 121 1 163 -26 19 -45 20 -765
21 -406 0 -794 -1 -861 -4z"/>
<path d="M2590 729 c-88 -40 -123 -92 -124 -184 0 -37 6 -72 16 -91 25 -46 78
-93 117 -104 54 -15 2038 -13 2082 1 40 14 94 62 117 104 24 47 21 143 -7 188
-27 44 -72 80 -120 96 -25 8 -313 11 -1035 11 -986 0 -1002 -1 -1046 -21z"/>
</g>
</svg>
