<?xml version="1.0" standalone="no"?>
<!DOCTYPE svg PUBLIC "-//W3C//DTD SVG 20010904//EN"
 "http://www.w3.org/TR/2001/REC-SVG-20010904/DTD/svg10.dtd">
<svg version="1.0" xmlns="http://www.w3.org/2000/svg"
 width="900.000000pt" height="512.000000pt" viewBox="0 0 900.000000 512.000000"
 preserveAspectRatio="xMidYMid meet">
<metadata>
Created by potrace 1.16, written by Peter Selinger 2001-2019
</metadata>
<g transform="translate(0.000000,512.000000) scale(0.100000,-0.100000)"
fill="#000000" stroke="none">
<path d="M6955 3990 c-11 -5 -282 -271 -603 -592 -539 -540 -583 -586 -577
-611 9 -34 88 -107 116 -107 15 0 192 170 595 574 l574 573 0 75 c0 70 -1 75
-25 86 -30 14 -52 14 -80 2z m70 -74 c15 -22 15 -28 1 -53 -16 -32 -88 -100
-123 -116 -18 -8 -27 -6 -43 8 -33 30 -25 58 39 124 67 69 99 78 126 37z"/>
<path d="M3965 3176 c-96 -23 -211 -119 -271 -225 -52 -93 -76 -186 -75 -295
1 -138 32 -225 110 -307 34 -35 46 -37 37 -6 -68 225 -37 439 93 637 46 71 84
112 143 158 71 54 63 62 -37 38z"/>
<path d="M5698 2741 c-20 -4 -48 -16 -63 -27 -67 -47 -82 -54 -120 -54 -22 0
-75 7 -118 15 -43 8 -93 15 -111 15 -60 0 -323 -144 -506 -278 -93 -68 -137
-109 -156 -144 -32 -61 29 -139 358 -463 298 -294 337 -317 418 -249 51 43
232 309 319 468 17 32 40 84 50 115 18 53 18 60 4 136 -23 114 -22 185 2 220
46 64 53 79 60 121 6 43 4 46 -39 89 -24 25 -48 44 -53 44 -4 -1 -24 -5 -45
-8z m-503 -321 c28 -31 11 -54 -140 -191 -152 -139 -174 -152 -205 -124 -40
36 -27 56 118 187 176 160 191 168 227 128z m153 -156 c44 -31 30 -56 -106
-193 -70 -70 -140 -136 -155 -146 -25 -16 -29 -16 -52 -1 -47 31 -34 53 121
209 80 81 151 147 157 147 7 0 23 -7 35 -16z m178 -179 c16 -25 16 -27 -12
-64 -51 -68 -244 -279 -261 -285 -24 -10 -63 21 -63 48 0 26 14 44 164 214 82
92 105 112 128 112 18 0 33 -8 44 -25z"/>
<path d="M4265 2613 c15 -61 17 -226 4 -282 -28 -122 -103 -250 -189 -322 -27
-23 -47 -45 -45 -49 7 -12 99 15 139 40 19 11 55 44 80 71 137 152 159 378 53
527 -35 48 -52 55 -42 15z"/>
<path d="M2860 2284 c0 -82 73 -192 170 -254 107 -69 281 -94 380 -54 91 36
172 107 103 90 -58 -15 -217 -18 -272 -7 -134 29 -245 92 -330 188 -41 46 -51
54 -51 37z"/>
<path d="M1995 2223 c-38 -10 -55 -39 -55 -95 l0 -52 215 -216 c118 -119 231
-239 249 -267 146 -223 432 -477 726 -647 84 -48 310 -156 390 -186 19 -7 49
-19 65 -26 128 -54 454 -141 615 -164 36 -5 94 -14 130 -19 207 -32 555 -36
780 -10 263 30 548 103 728 186 39 18 74 33 76 33 10 0 204 114 250 147 28 20
89 53 136 74 47 20 110 48 140 62 30 13 78 35 105 47 182 81 232 109 245 139
26 64 -19 131 -87 131 -19 0 -64 -13 -99 -30 -35 -16 -103 -46 -151 -66 -49
-21 -92 -41 -98 -45 -5 -4 -39 -19 -74 -33 -73 -29 -48 -31 -361 29 -74 14
-187 35 -250 46 -63 12 -133 24 -155 29 -22 4 -85 15 -140 24 -55 9 -116 21
-135 26 -19 5 -91 19 -160 30 -116 20 -346 62 -600 110 -58 11 -167 31 -242
45 -213 39 -403 73 -518 95 -58 10 -145 26 -195 35 -49 9 -135 25 -190 36 -55
11 -125 24 -155 29 -327 59 -473 86 -644 119 l-99 19 -176 176 c-153 152 -211
200 -239 195 -4 -1 -16 -4 -27 -6z"/>
</g>
</svg>
