<?xml version="1.0" standalone="no"?>
<!DOCTYPE svg PUBLIC "-//W3C//DTD SVG 20010904//EN"
 "http://www.w3.org/TR/2001/REC-SVG-20010904/DTD/svg10.dtd">
<svg version="1.0" xmlns="http://www.w3.org/2000/svg"
 width="600.000000pt" height="600.000000pt" viewBox="0 0 600.000000 600.000000"
 preserveAspectRatio="xMidYMid meet">
<metadata>
Created by potrace 1.16, written by Peter Selinger 2001-2019
</metadata>
<g transform="translate(0.000000,600.000000) scale(0.100000,-0.100000)"
fill="#000000" stroke="none">
<path d="M3617 5645 c-111 -23 -102 -9 -105 -145 -3 -98 1 -134 18 -198 25
-89 21 -129 -16 -166 -39 -39 -82 -46 -274 -46 -104 0 -215 -6 -274 -15 -266
-40 -548 -139 -786 -275 -95 -54 -315 -216 -418 -306 -59 -52 -62 -58 -62
-100 0 -39 -9 -58 -74 -152 -118 -172 -142 -231 -151 -372 -4 -47 -11 -102
-17 -124 -11 -34 -10 -40 7 -52 10 -8 29 -14 42 -14 16 0 60 -34 136 -103 61
-56 150 -136 197 -177 47 -40 89 -83 93 -94 5 -12 38 -122 73 -246 59 -204 64
-226 49 -236 -23 -17 -16 -58 12 -62 22 -3 43 -45 43 -87 0 -14 -49 -72 -141
-169 -140 -146 -142 -147 -163 -129 -116 100 -342 190 -536 214 -148 18 -351
0 -470 -42 -197 -68 -318 -140 -453 -269 -235 -225 -360 -537 -343 -861 15
-296 114 -529 318 -744 74 -79 192 -166 293 -218 222 -114 466 -149 730 -106
299 49 618 271 766 534 l30 53 62 6 c34 3 130 11 212 16 83 6 177 15 209 20
119 19 215 89 270 198 15 30 34 52 48 56 13 4 88 10 168 13 80 3 151 10 158
16 8 7 12 24 10 43 l-4 33 66 6 c176 16 253 63 234 141 -8 31 -8 31 -108 58
-46 13 -105 34 -132 47 -54 27 -224 183 -224 206 0 18 1 20 325 418 143 176
306 376 362 445 67 84 120 139 161 168 l62 42 14 -33 c7 -19 17 -43 20 -55 5
-15 21 -24 61 -33 54 -12 56 -13 100 -88 24 -42 55 -106 69 -143 l26 -68 -30
-15 c-88 -46 -252 -189 -314 -275 -101 -140 -200 -360 -212 -470 -2 -19 -9
-69 -14 -110 -14 -98 -3 -281 22 -372 10 -40 23 -88 28 -105 12 -47 92 -208
141 -282 44 -68 181 -213 239 -255 67 -47 218 -136 232 -136 8 0 18 -4 24 -9
18 -18 180 -62 277 -77 105 -16 256 -13 377 7 201 34 449 164 584 307 23 24
53 56 67 70 84 86 194 296 233 447 119 454 -56 941 -434 1210 -199 141 -429
215 -667 215 -91 0 -268 -28 -346 -55 -62 -21 -69 -22 -75 -7 -4 9 -29 82 -57
162 l-50 145 -52 3 c-47 3 -54 6 -73 37 -12 19 -19 39 -16 43 3 5 33 19 67 31
131 48 173 129 173 334 0 110 2 127 16 122 8 -4 48 -16 88 -28 68 -20 76 -20
115 -6 25 9 53 12 67 8 41 -11 118 -10 126 2 4 7 9 42 12 80 4 66 3 69 -32
118 -48 65 -87 98 -134 111 -20 6 -109 15 -197 20 -88 6 -185 18 -215 26 -69
20 -260 117 -365 186 -91 60 -98 72 -161 253 -34 97 -38 123 -42 225 -2 78 1
127 10 154 12 36 20 42 113 83 120 55 151 60 232 39 73 -19 96 -13 141 38 66
76 109 207 98 302 -7 58 -4 62 66 97 56 29 67 66 50 178 -14 96 -47 162 -112
223 -59 55 -105 79 -215 111 -78 22 -104 25 -249 24 -91 0 -191 -7 -229 -14z
m-251 -1592 c69 -129 115 -205 201 -334 l64 -97 87 -39 c48 -22 111 -48 141
-58 50 -16 53 -19 36 -31 -10 -8 -22 -14 -26 -14 -17 0 -16 -34 6 -116 12 -49
26 -108 29 -130 7 -41 7 -42 -26 -53 -36 -11 -553 -141 -563 -141 -4 0 -4 9 0
19 31 99 22 204 -23 275 -63 101 -153 175 -462 383 -91 62 -181 125 -200 141
l-34 29 79 47 c66 38 88 46 130 46 80 0 161 26 285 92 119 63 173 86 202 87
12 1 35 -33 74 -106z m934 -680 c70 -74 90 -113 90 -174 0 -87 -69 -169 -161
-188 -42 -9 -55 -9 -65 1 -7 7 -40 83 -74 168 -34 85 -64 160 -67 167 -7 18
135 93 178 93 32 0 44 -8 99 -67z m-2040 -311 c69 -53 142 -111 163 -131 42
-39 72 -87 59 -95 -6 -4 -169 -46 -234 -60 -27 -6 -31 23 -4 34 23 9 36 29 36
57 0 12 -8 14 -43 9 l-43 -7 -39 138 c-21 76 -41 144 -43 152 -7 19 1 14 148
-97z m1530 -90 c0 -9 -61 -84 -458 -565 -162 -197 -296 -356 -297 -355 -9 9
21 136 65 279 28 90 69 234 90 319 22 85 43 165 46 177 8 28 41 39 289 97 105
24 199 46 210 49 33 8 55 7 55 -1z m-1647 -496 c-16 -55 -138 -246 -157 -246
-16 0 -29 11 -54 46 l-21 31 116 122 c124 130 143 138 116 47z m600 -196 c0
-87 -8 -208 -18 -275 -15 -112 -20 -125 -65 -200 -26 -44 -57 -99 -69 -123
-40 -79 -48 -64 -128 233 -40 149 -74 276 -75 282 -2 7 74 71 167 142 144 108
171 126 180 112 5 -9 9 -86 8 -171z m-1661 30 c8 -121 28 -684 24 -687 -1 -2
-15 55 -30 125 -95 443 -136 646 -131 651 7 6 93 19 115 17 12 -1 16 -24 22
-106z m147 101 c16 -10 19 13 -47 -451 l-47 -335 -7 125 c-12 205 -26 644 -21
658 6 14 100 17 122 3z m3605 -73 c6 -88 27 -647 25 -688 -1 -28 -25 73 -109
470 -32 151 -56 277 -54 280 4 4 75 15 116 19 13 1 17 -13 22 -81z m145 73
c11 -7 12 -24 7 -78 -11 -110 -85 -635 -94 -668 -9 -31 -16 100 -29 533 l-6
222 54 0 c30 0 60 -4 68 -9z m-3616 -22 c20 -5 37 -16 37 -24 0 -7 -41 -141
-91 -297 -147 -454 -148 -457 -143 -413 7 62 94 686 101 723 6 37 1 36 96 11z
m3760 -1 c33 -8 37 -12 31 -31 -24 -79 -206 -639 -218 -672 -9 -24 -15 -32
-15 -20 -1 24 97 714 104 733 5 13 13 12 98 -10z m-4204 -35 c32 -119 153
-694 147 -700 -5 -5 -268 644 -278 686 -2 9 14 21 42 32 67 27 78 24 89 -18z
m3753 2 c16 -58 148 -679 148 -694 -1 -21 -10 1 -156 361 -68 170 -124 315
-124 323 0 14 81 46 109 42 8 -1 18 -15 23 -32z m-3173 -10 c50 -19 52 -21 47
-49 -6 -27 -317 -620 -336 -640 -12 -12 2 32 122 402 56 172 104 311 108 310
3 -2 29 -12 59 -23z m3809 -30 c2 -2 -39 -86 -91 -187 -136 -261 -267 -504
-267 -496 0 8 214 672 229 710 l10 28 58 -25 c31 -14 59 -28 61 -30z m-4507
-90 c96 -231 239 -588 236 -591 -2 -2 -88 133 -192 299 -104 166 -195 312
-203 324 -13 21 -11 23 45 52 32 16 61 26 65 23 4 -4 26 -52 49 -107z m3719
75 c28 -54 283 -687 272 -675 -10 11 -163 256 -306 488 -53 86 -94 162 -91
167 5 8 89 57 102 60 2 0 12 -18 23 -40z m-2880 -31 c27 -17 50 -34 50 -38 0
-12 -191 -243 -357 -431 -12 -14 10 38 50 115 92 178 201 385 204 385 2 0 25
-14 53 -31z m3786 -24 l26 -20 -68 -90 c-67 -90 -367 -475 -392 -505 -19 -21
278 548 345 663 5 8 48 -15 89 -48z m-4797 -23 c44 -66 296 -465 339 -537 l43
-70 -77 80 c-93 98 -428 473 -431 483 -2 7 86 81 97 81 3 1 16 -16 29 -37z
m3824 -109 c74 -116 231 -367 301 -482 23 -37 -29 18 -250 265 -132 146 -239
273 -239 282 0 13 76 82 90 82 2 0 46 -66 98 -147z m1089 39 l37 -35 -82 -76
c-82 -77 -222 -205 -412 -376 l-99 -90 69 90 c377 490 420 542 435 532 8 -6
32 -26 52 -45z m-1048 -288 c291 -319 271 -296 196 -238 -36 28 -105 82 -155
120 -179 137 -390 306 -393 313 -1 4 17 29 40 56 l42 48 36 -40 c19 -21 125
-138 234 -259z m-3948 214 c65 -68 125 -133 359 -392 50 -55 83 -96 75 -91
-19 12 -284 216 -457 353 -73 58 -133 110 -133 116 0 11 70 86 80 86 3 0 37
-33 76 -72z m1795 -209 c32 -123 59 -227 59 -231 0 -9 -54 -1 -92 14 -35 13
-55 45 -83 132 -34 104 -55 159 -67 173 -12 15 -7 23 55 96 31 35 54 54 59 49
5 -5 36 -110 69 -233z m3283 194 c11 -14 29 -39 39 -54 l18 -27 -148 -95
c-138 -88 -449 -282 -483 -301 -8 -5 -1 5 15 22 36 36 528 481 534 482 2 0 13
-12 25 -27z m-5094 -157 c136 -103 429 -332 440 -343 12 -12 -285 143 -553
289 l-128 70 22 36 c32 54 50 72 63 65 6 -4 76 -56 156 -117z m3760 -5 c189
-145 403 -312 420 -329 8 -8 -23 6 -70 30 -47 25 -182 96 -300 158 -234 123
-290 156 -290 168 0 5 14 30 30 56 l31 48 27 -18 c15 -9 83 -60 152 -113z
m1443 -7 c16 -31 27 -58 25 -59 -6 -5 -603 -251 -698 -287 -51 -19 -42 -13
575 370 28 17 55 31 60 31 6 1 23 -24 38 -55z m-5284 -90 c255 -133 501 -265
501 -269 0 -5 29 -14 -385 120 -181 59 -333 110 -336 113 -7 7 39 122 49 122
3 0 80 -39 171 -86z m3973 -117 c158 -83 286 -152 285 -154 -2 -1 -158 48
-347 109 -190 61 -353 113 -362 115 -10 3 -18 11 -18 18 0 16 29 86 42 102 12
15 7 17 400 -190z m-2835 131 c-5 -24 -11 -48 -12 -53 -2 -9 -148 -102 -285
-184 -22 -13 -23 -13 -10 0 46 46 308 279 314 279 2 0 -1 -19 -7 -42z m4208
-70 c8 -28 15 -57 15 -63 0 -7 -92 -32 -237 -63 -381 -83 -517 -111 -521 -108
-5 6 694 285 715 286 7 0 19 -23 28 -52z m-5293 -99 c438 -142 454 -148 434
-148 -31 -2 -741 101 -748 108 -6 5 20 131 28 131 1 0 130 -41 286 -91z m3907
-50 c162 -52 287 -95 279 -97 -15 -3 -713 95 -737 103 -14 6 -10 59 9 109 l9
25 73 -23 c40 -12 205 -65 367 -117z m-2694 37 l39 -24 -39 -11 c-47 -12 -414
-91 -424 -91 -12 1 354 149 369 150 8 0 33 -11 55 -24z m4110 -21 c3 -19 7
-50 10 -69 l6 -34 -63 -6 c-72 -6 -619 -26 -688 -25 -38 1 -27 5 65 25 115 26
645 141 657 143 4 1 10 -15 13 -34z m-3913 -61 c57 -20 107 -40 111 -44 5 -4
-99 -10 -230 -14 -131 -3 -287 -9 -348 -12 -74 -4 -107 -3 -100 4 6 5 96 28
200 50 105 22 199 42 210 45 40 9 56 6 157 -29z m-1412 -19 c391 -53 439 -61
410 -68 -24 -6 -565 -27 -682 -27 l-58 0 0 48 c0 75 8 92 39 87 14 -3 145 -21
291 -40z m3836 -11 c194 -27 350 -51 346 -55 -9 -8 -751 -34 -758 -26 -4 3 -3
36 1 73 7 64 8 66 32 61 15 -3 185 -27 379 -53z m-1766 -3 c0 -12 -9 -22 -22
-26 -61 -17 -85 -34 -122 -90 -21 -30 -26 -50 -26 -97 0 -33 5 -69 11 -81 19
-37 62 -78 98 -93 71 -30 179 -10 218 39 21 27 57 49 66 40 12 -11 -23 -61
-64 -91 -88 -65 -197 -63 -286 5 -56 43 -71 33 -19 -13 38 -34 116 -64 166
-64 86 0 190 63 224 135 13 26 23 35 41 35 19 0 23 -4 18 -17 -8 -22 -46 -81
-70 -109 -52 -60 -162 -100 -244 -89 -30 4 -55 3 -62 -4 -7 -5 -64 -15 -127
-21 -63 -5 -136 -12 -162 -15 -55 -6 -57 -2 -29 59 39 86 51 117 51 133 0 25
23 83 32 83 5 0 11 -8 14 -17 30 -96 83 -162 163 -203 45 -23 51 -24 51 -10 0
5 -16 17 -36 26 -47 22 -119 97 -143 149 -27 58 -33 104 -21 165 15 81 40 121
83 136 20 7 37 12 37 10 0 -2 -13 -20 -29 -40 -33 -41 -63 -168 -44 -187 7 -7
12 8 17 46 8 68 37 128 78 164 69 58 138 79 138 42z m-490 -82 l0 -41 -37 6
c-21 3 -123 15 -228 26 -104 11 -201 24 -215 28 -27 8 129 17 348 20 l132 2 0
-41z m3757 -25 c-4 -37 -8 -68 -10 -70 -6 -6 -720 96 -742 106 -14 6 11 9 80
11 55 1 170 5 255 9 85 3 215 7 289 8 l134 2 -6 -66z m-4902 20 c-5 -2 -174
-39 -375 -83 -409 -88 -372 -88 -383 6 l-6 52 32 6 c68 11 756 29 732 19z
m3748 -1 c-7 -2 -175 -40 -374 -82 -405 -88 -373 -89 -374 9 l0 55 280 11
c316 12 486 15 468 7z m696 -53 c461 -63 441 -60 441 -81 0 -27 -21 -119 -27
-119 -5 0 -705 225 -728 235 -26 10 43 2 314 -35z m-4469 9 c-91 -41 -657
-269 -667 -269 -10 0 -48 118 -40 126 3 4 107 27 617 137 140 31 147 31 90 6z
m3785 11 c-330 -137 -691 -280 -700 -276 -11 4 -50 115 -43 122 3 2 128 30
279 63 151 33 315 68 364 79 98 21 131 25 100 12z m707 -122 c347 -112 378
-123 377 -141 -1 -27 -46 -102 -60 -99 -16 4 -560 286 -629 327 -55 32 -65 35
312 -87z m-4447 93 c-6 -5 -152 -97 -325 -206 -350 -219 -319 -209 -361 -120
l-19 40 53 24 c46 22 645 268 657 270 2 1 0 -3 -5 -8z m727 -103 c191 -61 348
-115 348 -119 0 -5 -11 -33 -25 -64 l-24 -56 -103 52 c-150 75 -558 290 -558
295 0 8 20 2 362 -108z m2988 78 c-47 -32 -503 -316 -562 -350 l-47 -27 -30
59 -30 60 37 16 c243 101 649 266 657 266 5 0 -6 -11 -25 -24z m-3706 -14
c-17 -15 -123 -110 -235 -212 -262 -237 -316 -283 -326 -277 -5 3 -23 25 -40
50 -30 42 -31 45 -15 60 9 8 130 85 267 172 138 86 277 174 310 195 71 46 81
49 39 12z m808 -7 c332 -46 298 -35 284 -92 -7 -26 -16 -48 -21 -49 -6 -2
-129 37 -275 85 -146 49 -260 89 -253 90 6 1 125 -15 265 -34z m3726 -208 c93
-51 180 -99 193 -108 l23 -16 -33 -51 c-18 -29 -35 -52 -38 -52 -9 0 -603 459
-603 466 0 5 232 -116 458 -239z m-3873 65 c77 -41 184 -99 237 -129 l98 -54
-15 -29 c-12 -23 -23 -29 -65 -35 l-50 -7 -87 68 c-204 158 -419 328 -433 341
-18 18 119 -50 315 -155z m3090 149 c-55 -53 -494 -447 -523 -468 l-32 -25
-23 28 c-43 55 -46 59 -47 71 0 10 131 96 490 321 80 50 147 92 150 92 2 0 -4
-9 -15 -19z m624 -247 c139 -109 261 -205 269 -212 14 -11 11 -18 -28 -57 -24
-25 -48 -45 -52 -45 -6 0 -393 423 -489 535 l-34 40 40 -31 c22 -17 154 -120
294 -230z m-815 -56 c-130 -167 -238 -305 -239 -306 -5 -6 -95 79 -95 89 0 7
558 519 566 519 2 0 -102 -136 -232 -302z m-3566 240 c-19 -24 -121 -155 -228
-293 -106 -137 -195 -252 -197 -254 -2 -3 -26 17 -53 44 l-50 49 73 66 c162
150 478 430 483 430 4 0 -9 -19 -28 -42z m6 -85 c-125 -239 -287 -538 -294
-546 -8 -9 -110 49 -110 63 0 11 460 610 468 610 2 0 -27 -57 -64 -127z m4167
-23 c68 -74 182 -199 252 -277 l127 -141 -50 -37 c-28 -20 -56 -35 -63 -32 -6
2 -86 123 -176 268 -91 145 -180 289 -199 319 -19 30 -30 51 -25 45 5 -5 66
-71 134 -145z m21 -160 c91 -146 177 -286 192 -312 l27 -47 -59 -30 -60 -30
-42 102 c-107 257 -250 610 -250 615 0 10 14 -12 192 -298z m-468 123 c-93
-180 -201 -382 -241 -451 l-24 -43 -40 23 c-72 40 -73 46 -27 108 100 134 411
530 415 530 3 0 -35 -75 -83 -167z m395 -192 c79 -194 139 -357 134 -361 -10
-10 -115 -41 -120 -36 -2 2 -37 160 -78 352 -92 430 -88 410 -83 404 3 -3 69
-164 147 -359z m-268 128 c-16 -118 -40 -288 -52 -377 l-23 -164 -39 6 c-21 4
-51 12 -67 19 l-28 12 27 90 c50 163 204 635 208 632 1 -2 -10 -100 -26 -218z
m-122 -146 c-61 -191 -113 -350 -115 -352 -4 -5 -113 40 -119 49 -5 8 19 55
217 433 66 125 122 226 125 223 2 -2 -46 -161 -108 -353z m310 -71 c37 -172
65 -314 62 -317 -4 -2 -34 -7 -68 -10 l-61 -7 -6 63 c-8 86 -26 553 -25 637
l1 67 15 -60 c8 -33 45 -201 82 -373z m-110 48 c6 -179 11 -338 11 -353 l0
-28 -67 3 -68 3 2 35 c8 112 98 710 104 689 4 -13 12 -170 18 -349z m-3234
141 c132 -105 133 -108 24 -110 -51 -1 -36 -14 -240 214 -14 17 -29 45 -33 63
l-6 34 68 -53 c37 -30 121 -96 187 -148z m-642 152 c-2 -21 -9 -51 -13 -68
-23 -79 -171 -532 -178 -543 -7 -10 -21 -8 -65 12 -32 14 -57 27 -57 31 0 13
309 605 317 605 1 0 -1 -17 -4 -37z m537 -214 c44 -51 41 -59 -26 -59 -33 0
-38 5 -94 92 -60 93 -71 122 -47 131 11 5 80 -62 167 -164z m-546 -88 l27 -28
-22 -157 c-13 -86 -26 -162 -30 -168 -5 -7 -20 -7 -55 1 -84 20 -83 9 -20 205
31 97 60 176 64 176 5 0 21 -13 36 -29z m856 -30 c-4 -9 -25 -32 -44 -51 l-36
-34 -55 54 c-30 30 -54 59 -52 65 2 5 35 12 73 15 57 4 74 2 96 -14 20 -14 25
-23 18 -35z m-171 -32 c69 -80 69 -79 -5 -130 l-42 -28 -66 106 c-36 58 -63
110 -60 114 3 5 29 9 58 9 l53 0 62 -71z m-164 -20 c28 -42 60 -94 72 -116
l23 -40 -49 -27 c-27 -14 -56 -26 -64 -26 -10 0 -34 46 -71 140 -31 77 -56
143 -56 146 0 3 21 4 48 2 47 -3 47 -3 97 -79z m-286 54 c8 -16 71 -300 71
-322 0 -12 -120 -25 -130 -15 -5 5 -12 84 -15 176 -7 157 -7 166 11 171 37 9
53 7 63 -10z m174 -132 c32 -79 55 -146 53 -149 -12 -11 -120 -41 -126 -35 -7
8 -70 298 -70 322 0 8 14 11 42 9 l43 -3 58 -144z m-268 -48 l7 -163 -67 0
c-45 0 -67 4 -71 13 -2 7 5 78 16 157 11 80 20 148 20 152 0 5 13 8 29 8 17 0
33 5 37 11 15 24 22 -20 29 -178z"/>
</g>
</svg>
