<?xml version="1.0" standalone="no"?>
<!DOCTYPE svg PUBLIC "-//W3C//DTD SVG 20010904//EN"
 "http://www.w3.org/TR/2001/REC-SVG-20010904/DTD/svg10.dtd">
<svg version="1.0" xmlns="http://www.w3.org/2000/svg"
 width="820.000000pt" height="1164.000000pt" viewBox="0 0 820.000000 1164.000000"
 preserveAspectRatio="xMidYMid meet">
<metadata>
Created by potrace 1.16, written by Peter Selinger 2001-2019
</metadata>
<g transform="translate(0.000000,1164.000000) scale(0.100000,-0.100000)"
fill="#000000" stroke="none">
<path d="M7545 11205 c-27 -8 -75 -15 -105 -15 -30 0 -98 -4 -150 -10 -52 -6
-139 -13 -193 -16 -90 -5 -101 -8 -132 -35 -51 -45 -106 -60 -230 -63 -107 -1
-112 -3 -180 -40 -63 -35 -75 -38 -125 -34 -71 7 -123 -11 -130 -43 -4 -18
-14 -25 -40 -29 -19 -4 -47 -14 -62 -24 -19 -13 -27 -14 -30 -4 -7 21 -87 -8
-98 -37 -5 -13 -18 -29 -30 -35 -24 -13 -530 -180 -742 -246 -81 -25 -176 -57
-210 -71 -63 -25 -89 -36 -208 -90 -52 -24 -252 -146 -295 -180 -29 -24 -156
-73 -187 -73 -42 0 -185 -40 -269 -75 -32 -14 -89 -32 -126 -41 -37 -9 -108
-31 -158 -51 -98 -38 -335 -103 -402 -110 -23 -3 -47 -11 -54 -19 -6 -8 -15
-14 -20 -14 -13 0 -159 -112 -159 -121 0 -4 -9 -10 -19 -14 -11 -3 -38 -23
-60 -45 -32 -31 -50 -41 -90 -46 -28 -4 -56 -13 -62 -20 -6 -8 -20 -14 -30
-14 -56 0 -210 -75 -318 -155 -19 -14 -40 -25 -47 -25 -7 0 -14 -5 -16 -11 -7
-21 -103 67 -133 122 -26 49 -29 62 -26 129 2 41 4 93 4 115 1 30 -5 50 -26
76 -15 20 -27 39 -27 43 0 3 -28 49 -61 100 -45 69 -70 98 -93 107 -17 7 -61
29 -97 50 -85 49 -136 60 -278 60 -97 0 -128 -4 -186 -24 -114 -39 -189 -83
-322 -184 -134 -102 -137 -107 -182 -244 -35 -105 -43 -178 -31 -277 11 -87
56 -294 70 -322 11 -22 -27 -96 -61 -121 -16 -11 -29 -25 -29 -30 0 -6 -6 -17
-14 -25 -8 -7 -24 -26 -35 -40 -17 -22 -26 -25 -48 -19 -16 3 -45 9 -66 12
-66 9 -67 32 -7 161 36 79 50 121 48 144 -6 59 -30 46 -107 -56 -69 -93 -103
-126 -128 -126 -17 0 -16 59 2 135 19 80 19 121 -1 129 -9 3 -20 3 -25 0 -14
-9 -43 -70 -79 -173 -18 -51 -44 -105 -57 -119 -19 -21 -35 -60 -59 -149 -2
-7 -7 -13 -11 -13 -11 0 -49 111 -63 182 -12 60 -33 89 -52 70 -6 -6 -14 -68
-19 -139 -8 -117 -4 -205 17 -455 6 -64 4 -82 -11 -104 -11 -17 -20 -60 -26
-127 l-8 -100 49 -46 c27 -25 59 -53 70 -61 27 -19 51 -158 75 -419 19 -223
44 -373 90 -546 18 -71 50 -195 69 -274 38 -150 68 -218 143 -316 56 -73 80
-82 167 -61 81 19 177 63 229 104 20 17 76 79 124 138 94 118 234 264 252 264
7 0 9 -9 5 -25 -5 -22 -3 -25 20 -25 20 0 26 5 27 23 1 12 2 29 3 39 1 9 4 20
8 24 5 4 8 13 8 19 0 15 117 138 147 153 29 16 53 15 72 -2 19 -17 197 -119
329 -187 50 -27 119 -71 151 -98 33 -27 89 -70 124 -95 36 -25 84 -71 107
-102 24 -30 52 -62 63 -69 19 -13 20 -18 8 -69 -7 -30 -17 -56 -24 -59 -6 -2
-12 -24 -12 -50 -1 -26 -7 -53 -13 -59 -19 -19 -14 -38 11 -38 18 0 14 -6 -23
-32 -68 -47 -94 -84 -95 -131 0 -41 -3 -47 -76 -131 -49 -57 -79 -109 -79
-137 0 -15 -12 -34 -34 -51 -19 -15 -55 -66 -82 -115 -26 -48 -58 -104 -70
-123 -12 -19 -37 -71 -55 -115 -18 -44 -56 -120 -84 -170 -28 -49 -61 -110
-73 -135 -23 -47 -39 -72 -83 -137 -48 -70 -108 -178 -130 -233 -13 -30 -31
-67 -41 -81 -15 -23 -16 -34 -7 -84 12 -63 5 -111 -17 -119 -8 -3 -14 -10 -14
-16 0 -6 -11 -35 -24 -63 -13 -29 -27 -68 -31 -87 -4 -19 -13 -48 -20 -65 -68
-155 -91 -209 -144 -335 -34 -80 -66 -153 -71 -162 -6 -10 -10 -48 -10 -85 -1
-38 -5 -88 -10 -113 -5 -25 -12 -117 -15 -205 -6 -136 -3 -193 19 -380 24
-215 79 -552 110 -688 20 -88 32 -108 114 -209 37 -45 102 -129 145 -185 42
-56 91 -110 108 -120 31 -18 31 -18 26 -85 -5 -61 -19 -105 -37 -118 -4 -3
-13 -18 -21 -35 -8 -18 -23 -31 -37 -33 -15 -2 -22 -10 -22 -25 0 -12 -14 -40
-30 -61 -17 -22 -30 -47 -30 -55 -1 -9 -23 -26 -52 -40 -70 -33 -91 -55 -83
-91 7 -31 -20 -83 -45 -88 -8 -2 -23 -13 -32 -25 -19 -23 -22 -17 -18 33 2 31
0 29 -50 -48 -57 -89 -71 -128 -73 -204 -2 -57 1 -70 21 -91 13 -13 35 -49 51
-78 35 -68 80 -95 187 -110 117 -17 202 -58 278 -135 6 -7 23 -32 38 -58 l28
-46 59 0 c97 0 484 74 515 99 6 5 22 12 36 16 60 18 112 49 121 72 11 30 0 53
-52 110 -47 51 -50 82 -15 174 13 35 36 116 50 180 29 131 43 174 65 208 19
30 20 98 3 274 -14 146 -16 317 -4 317 4 0 13 -5 19 -11 15 -15 52 8 88 55 14
19 39 39 55 46 36 15 44 37 35 103 -8 60 -26 93 -55 102 -27 9 -62 78 -71 143
-4 30 -15 62 -24 72 -30 33 -141 64 -230 65 l-80 0 -18 35 c-14 29 -17 51 -12
125 6 101 -4 149 -43 209 -21 32 -28 59 -34 121 -4 44 -10 110 -14 147 -5 59
-4 71 17 104 31 51 32 122 1 163 -12 16 -22 33 -22 36 0 3 26 5 58 5 l57 0 99
168 c54 92 111 185 125 206 l26 40 3 -33 c5 -45 -25 -384 -43 -498 l-15 -92
41 -105 c52 -136 90 -186 290 -381 222 -217 419 -371 645 -504 38 -22 116 -79
173 -126 117 -97 203 -150 322 -199 46 -18 97 -39 112 -47 30 -13 115 -121
162 -204 70 -124 138 -175 231 -175 27 0 60 6 74 13 20 11 35 11 80 0 30 -7
80 -13 111 -13 44 0 65 -6 95 -26 21 -15 40 -30 42 -35 2 -4 10 -5 18 -2 21 8
95 -74 127 -139 40 -82 106 -179 147 -218 45 -42 59 -72 94 -210 15 -58 38
-124 52 -147 17 -30 24 -56 24 -96 0 -72 20 -96 122 -147 123 -61 130 -57 103
55 -24 101 -22 111 35 146 60 37 91 95 123 232 18 79 21 124 21 317 1 299 -20
772 -39 890 -20 121 -59 247 -96 305 -28 45 -49 58 -49 31 0 -19 -30 -28 -91
-29 -26 0 -46 -4 -43 -9 13 -21 -32 -5 -63 22 -20 18 -45 30 -61 30 -16 0 -65
9 -110 21 -83 21 -196 23 -251 4 -23 -8 -23 -6 -19 31 9 70 -18 98 -88 96 -39
-2 -124 -34 -171 -66 l-35 -24 -101 79 c-56 43 -106 79 -112 79 -19 0 -112
104 -119 134 -10 41 -97 128 -163 162 -37 19 -59 37 -61 49 -8 55 -16 68 -67
105 -44 32 -56 48 -65 83 -6 23 -14 51 -17 61 -8 26 -101 124 -135 142 -32 17
-90 20 -180 9 -39 -5 -68 -4 -67 1 0 5 6 36 13 69 l13 60 44 5 c24 3 49 9 56
13 23 15 126 192 197 341 90 188 102 220 121 327 8 47 26 110 40 140 14 30 25
64 25 77 0 12 13 62 29 110 16 48 34 114 41 147 6 33 31 119 55 190 29 87 47
162 54 225 23 210 42 473 37 496 -4 14 -2 24 4 24 13 0 13 111 0 145 -7 18
-15 25 -25 21 -25 -9 -17 9 16 33 26 19 29 27 24 52 -5 21 -2 31 9 35 24 9 19
21 -9 28 -15 4 -23 11 -19 17 4 8 9 7 14 -1 10 -16 20 26 15 65 -2 17 2 42 10
57 9 20 10 28 1 33 -7 3 -7 7 3 11 34 15 63 58 57 85 -4 21 3 35 32 67 30 32
51 44 112 61 181 52 180 47 66 355 -36 95 -106 294 -156 442 -75 218 -190 540
-326 913 -11 28 -19 39 -24 31 -14 -23 -27 -1 -39 62 -20 106 -72 292 -83 299
-6 4 -15 46 -21 93 -14 110 0 198 40 260 102 161 138 204 183 226 77 37 208
130 237 168 36 47 40 115 19 290 -9 72 -16 152 -16 177 l0 46 68 31 c128 58
229 96 302 112 40 9 98 28 130 41 85 36 395 201 470 250 36 24 124 72 195 108
72 36 173 90 224 121 52 31 101 56 108 56 7 0 13 4 13 8 0 20 99 43 171 40 72
-3 74 -2 72 20 -2 19 1 21 22 16 52 -13 60 -11 57 18 -4 34 22 49 71 41 26 -4
45 0 70 16 19 11 45 21 59 21 13 0 35 10 47 21 22 21 27 21 90 11 36 -7 133
-17 214 -23 156 -11 177 -8 177 32 0 19 49 59 73 59 20 0 26 20 18 61 -5 26
-12 35 -31 37 -14 2 -38 8 -53 14 -22 9 -27 16 -25 37 2 20 15 31 63 54 33 16
67 35 76 43 9 8 45 23 80 33 35 11 78 26 94 34 26 14 108 37 379 107 62 16 96
38 96 62 0 18 -59 29 -145 27 -49 -1 -99 1 -110 4 -11 3 -42 -1 -70 -8z
m-6067 -2495 c18 0 22 -6 22 -29 0 -15 11 -43 25 -62 13 -19 31 -48 38 -65 17
-36 62 -74 88 -74 27 0 23 -15 -15 -57 -18 -21 -43 -57 -55 -80 -12 -24 -37
-57 -57 -75 -20 -18 -43 -46 -51 -63 -9 -16 -19 -32 -22 -35 -20 -15 -170
-212 -176 -229 -3 -12 -11 -21 -17 -21 -6 0 -8 -11 -6 -25 3 -14 1 -25 -4 -25
-4 0 -1 -16 7 -36 l15 -36 -83 -102 c-45 -56 -96 -128 -112 -159 -18 -34 -36
-56 -44 -55 -31 6 -81 124 -121 287 -22 89 -47 176 -55 191 -23 45 -49 164
-36 168 6 2 11 17 11 33 0 50 29 106 62 120 35 14 148 124 183 178 13 20 28
64 34 99 12 78 15 82 54 82 42 0 170 36 216 60 20 11 45 18 56 15 11 -3 30 -5
43 -5z"/>
</g>
</svg>
