<?xml version="1.0" standalone="no"?>
<!DOCTYPE svg PUBLIC "-//W3C//DTD SVG 20010904//EN"
 "http://www.w3.org/TR/2001/REC-SVG-20010904/DTD/svg10.dtd">
<svg version="1.0" xmlns="http://www.w3.org/2000/svg"
 width="860.000000pt" height="659.000000pt" viewBox="0 0 860.000000 659.000000"
 preserveAspectRatio="xMidYMid meet">
<metadata>
Created by potrace 1.16, written by Peter Selinger 2001-2019
</metadata>
<g transform="translate(0.000000,659.000000) scale(0.100000,-0.100000)"
fill="#000000" stroke="none">
<path d="M4365 6165 c-470 -77 -869 -371 -1070 -790 -98 -204 -134 -350 -142
-580 -4 -134 -2 -179 15 -280 36 -206 110 -393 230 -575 75 -115 260 -298 381
-379 430 -285 955 -325 1419 -106 l93 44 340 -91 c187 -50 342 -88 344 -86 3
3 1 18 -4 34 -5 16 -46 164 -90 329 l-80 300 57 115 c123 245 171 487 151 755
-26 354 -184 688 -442 931 -190 180 -412 298 -677 360 -136 32 -388 41 -525
19z"/>
<path d="M2952 4527 c-115 -190 -167 -419 -142 -628 14 -120 48 -247 90 -329
17 -33 30 -67 30 -76 0 -10 -28 -120 -62 -246 -33 -125 -59 -231 -56 -234 3
-2 109 23 237 57 l231 62 82 -41 c318 -157 695 -143 983 36 56 35 65 29 -85
58 -513 99 -969 482 -1161 973 -46 118 -87 268 -96 354 -3 32 -9 59 -13 62 -3
2 -21 -19 -38 -48z"/>
<path d="M1205 3920 c-293 -63 -540 -229 -700 -470 -295 -443 -245 -1009 125
-1393 l80 -84 2 -429 3 -429 170 -99 c768 -446 978 -568 991 -573 12 -4 14 48
16 333 l3 339 155 5 c149 5 158 6 223 37 80 38 173 122 210 191 50 91 57 144
57 414 l0 248 83 0 c127 0 184 45 175 138 -4 38 -28 85 -131 255 l-127 209 0
151 c0 247 -35 404 -131 587 -146 278 -400 477 -717 562 -115 30 -365 35 -487
8z"/>
<path d="M6955 3920 c-359 -77 -653 -318 -798 -653 -64 -150 -78 -225 -85
-457 l-7 -205 -104 -170 c-58 -93 -118 -196 -135 -227 -26 -52 -28 -61 -18
-96 6 -21 25 -51 42 -67 29 -28 37 -30 126 -33 l94 -4 0 -259 c0 -236 2 -265
21 -321 44 -133 134 -227 269 -283 35 -15 81 -20 200 -24 l155 -6 3 -338 c1
-185 4 -337 7 -337 3 0 266 152 585 337 l580 337 0 424 0 424 83 87 c142 150
234 311 285 499 24 88 26 114 26 282 0 170 -2 193 -27 285 -104 385 -411 691
-795 792 -135 36 -374 42 -507 13z"/>
</g>
</svg>
