<?xml version="1.0" standalone="no"?>
<!DOCTYPE svg PUBLIC "-//W3C//DTD SVG 20010904//EN"
 "http://www.w3.org/TR/2001/REC-SVG-20010904/DTD/svg10.dtd">
<svg version="1.0" xmlns="http://www.w3.org/2000/svg"
 width="840.000000pt" height="972.000000pt" viewBox="0 0 840.000000 972.000000"
 preserveAspectRatio="xMidYMid meet">
<metadata>
Created by potrace 1.16, written by Peter Selinger 2001-2019
</metadata>
<g transform="translate(0.000000,972.000000) scale(0.100000,-0.100000)"
fill="#000000" stroke="none">
<path d="M5862 9310 c-200 -26 -450 -105 -592 -188 l-65 -38 3 -43 c3 -54 62
-284 108 -426 249 -760 747 -1396 1431 -1828 136 -86 432 -232 588 -292 151
-57 367 -120 510 -150 131 -27 115 -37 191 120 92 191 135 352 156 588 21 229
-18 517 -102 762 -191 558 -606 1026 -1145 1291 -285 140 -539 203 -840 209
-93 2 -203 0 -243 -5z"/>
<path d="M4686 8538 c-222 -398 -255 -911 -90 -1408 245 -738 896 -1321 1649
-1475 317 -64 609 -51 910 42 87 27 325 139 325 153 0 5 -15 12 -32 15 -163
36 -544 190 -784 319 -360 191 -636 397 -929 690 -291 292 -507 588 -700 961
-104 199 -171 360 -245 583 -32 95 -60 176 -63 178 -3 3 -21 -23 -41 -58z"/>
<path d="M2660 4959 c-806 -980 -1536 -1867 -1623 -1972 -214 -257 -240 -312
-241 -513 l-1 -111 -75 -65 c-87 -76 -164 -162 -254 -282 -198 -262 -289 -537
-256 -776 31 -229 153 -430 352 -583 93 -71 159 -101 304 -138 579 -146 1098
-29 1683 379 139 96 304 230 611 496 404 350 571 480 780 606 298 180 551 254
860 253 616 -3 1254 -283 1886 -826 213 -184 480 -461 632 -656 107 -137 158
-184 226 -205 138 -44 286 24 347 158 28 61 25 167 -5 231 -49 103 -314 411
-572 667 -744 735 -1573 1152 -2380 1197 -565 32 -1047 -131 -1594 -538 -152
-113 -297 -233 -570 -470 -124 -108 -286 -245 -360 -305 -527 -423 -924 -546
-1401 -435 -84 20 -89 22 -146 82 -75 78 -98 134 -89 214 15 131 108 283 282
462 l110 114 55 -14 c165 -41 373 8 499 118 25 22 196 163 380 314 376 309
551 452 1360 1118 311 256 918 755 1350 1110 432 354 791 650 798 656 11 10
-15 27 -135 87 -564 283 -991 710 -1265 1266 -39 78 -74 142 -77 141 -3 0
-665 -801 -1471 -1780z"/>
</g>
</svg>
