<?xml version="1.0" standalone="no"?>
<!DOCTYPE svg PUBLIC "-//W3C//DTD SVG 20010904//EN"
 "http://www.w3.org/TR/2001/REC-SVG-20010904/DTD/svg10.dtd">
<svg version="1.0" xmlns="http://www.w3.org/2000/svg"
 width="922.000000pt" height="720.000000pt" viewBox="0 0 922.000000 720.000000"
 preserveAspectRatio="xMidYMid meet">
<metadata>
Created by potrace 1.16, written by Peter Selinger 2001-2019
</metadata>
<g transform="translate(0.000000,720.000000) scale(0.100000,-0.100000)"
fill="#000000" stroke="none">
<path d="M8801 7167 c-23 -15 -41 -30 -41 -33 0 -3 21 9 46 26 25 18 48 30 50
27 6 -6 -88 -62 -99 -59 -4 1 -27 -9 -50 -22 -29 -17 -87 -33 -187 -52 -130
-23 -174 -34 -142 -34 35 0 289 53 313 65 16 9 29 13 29 11 0 -15 -68 -37
-170 -56 -284 -52 -592 -138 -687 -190 -32 -18 -89 -49 -128 -70 -38 -21 -164
-71 -280 -110 -540 -184 -624 -214 -677 -241 -32 -16 -58 -27 -58 -24 0 4 37
24 83 46 45 22 71 37 57 33 -39 -10 -84 -34 -250 -131 -250 -146 -221 -135
-470 -168 -96 -13 -161 -24 -144 -24 41 -1 312 35 361 48 21 6 90 40 153 76
63 37 135 78 160 92 25 14 41 21 35 15 -19 -20 -310 -182 -345 -192 -84 -24
-431 -62 -673 -72 -338 -15 -562 -3 -655 36 -56 24 -73 26 -203 26 -78 0 -159
-5 -179 -11 -24 -7 -43 -8 -54 -2 -20 11 -24 11 211 19 149 5 166 4 209 -15
26 -12 52 -21 58 -21 6 1 -14 12 -44 25 -50 22 -69 24 -201 25 -83 0 -160 -5
-178 -11 -43 -15 -78 1 -87 38 -3 15 -12 46 -20 68 -14 39 -12 24 6 -52 5 -19
4 -31 -1 -27 -5 3 -9 13 -9 23 0 9 -13 59 -29 110 -30 96 -29 115 1 33 15 -40
17 -42 12 -12 -15 86 -83 161 -204 224 -73 38 -118 48 -218 48 -101 -1 -248
-54 -292 -107 -7 -9 11 0 39 19 97 65 234 92 363 71 51 -8 168 -68 195 -98 14
-16 11 -15 -17 5 -52 39 -130 75 -177 83 -149 24 -301 -12 -400 -98 -21 -17
-32 -24 -24 -14 20 25 -2 21 -27 -6 -26 -28 -29 -45 -4 -26 14 11 13 10 -2 -9
-20 -23 -32 -30 -20 -10 4 7 3 8 -5 4 -17 -11 -58 -96 -71 -147 -6 -25 -14
-76 -18 -114 l-7 -70 -35 -3 c-19 -1 -96 -12 -170 -23 -74 -11 -170 -24 -212
-30 -42 -5 -94 -16 -116 -23 -35 -13 -43 -12 -82 5 -23 10 -52 19 -64 18 -16
-1 -13 -3 9 -9 17 -4 45 -14 64 -23 30 -13 40 -13 72 -2 21 8 59 16 86 20 26
3 93 13 148 21 97 14 193 27 285 39 24 3 41 2 37 -2 -5 -4 -38 -10 -75 -14
-155 -16 -459 -64 -493 -77 -20 -8 -35 -6 -68 9 -50 22 -72 24 -90 7 -11 -11
-12 -10 -6 2 7 12 6 13 -6 4 -8 -7 -23 -14 -34 -17 -13 -3 -7 -5 14 -6 19 0
32 -3 30 -5 -2 -2 -85 -14 -184 -25 -99 -12 -207 -26 -240 -31 -98 -16 -338
-29 -690 -39 -372 -11 -592 -35 -698 -75 -34 -14 -132 -54 -218 -89 -85 -35
-220 -88 -300 -117 -191 -70 -215 -83 -348 -189 -62 -50 -116 -91 -119 -91 -7
0 -11 -3 118 100 121 97 164 123 268 160 34 13 61 25 59 27 -6 6 -135 -44
-184 -71 -43 -24 -278 -209 -290 -229 -4 -6 -1 -7 8 -2 12 8 12 6 0 -8 -15
-18 -26 -23 -16 -7 15 25 -15 6 -52 -32 l-42 -43 0 -163 0 -163 36 -40 c35
-39 90 -75 99 -66 3 2 -8 10 -25 16 -16 7 -42 27 -57 44 l-29 32 30 -26 c61
-54 135 -76 195 -59 19 5 61 35 95 67 l60 58 -61 -63 c-48 -50 -71 -66 -110
-77 -27 -7 -42 -14 -34 -14 55 -3 92 22 202 139 107 114 147 164 102 130 -10
-8 -6 0 10 18 32 34 48 44 25 14 -8 -10 1 -3 18 17 31 32 33 39 33 107 l0 73
38 10 c187 51 416 88 627 101 l130 9 -135 -4 c-163 -5 -369 -34 -547 -78 -72
-17 -129 -29 -127 -25 8 12 261 68 400 89 77 11 216 24 309 29 94 5 213 18
265 29 133 27 313 44 385 37 33 -4 130 -20 215 -36 85 -16 225 -36 310 -44
341 -33 548 -58 608 -71 57 -14 162 -59 162 -70 0 -3 -23 6 -50 20 -28 14 -81
32 -118 40 -66 15 -558 70 -702 79 l-75 5 65 -9 c36 -5 198 -23 360 -40 162
-18 324 -38 360 -46 74 -17 188 -77 334 -175 74 -49 153 -119 296 -260 107
-106 198 -193 202 -193 3 -1 10 -5 15 -10 4 -5 3 -6 -4 -3 -6 4 -13 1 -16 -5
-3 -9 -53 12 -158 65 -85 43 -158 77 -163 77 -5 0 63 -36 149 -81 106 -54 166
-79 182 -76 13 2 23 0 23 -4 0 -24 -64 -2 -196 66 -165 86 -227 100 -379 92
-115 -6 -185 -22 -232 -54 -21 -14 -31 -18 -23 -9 42 52 178 81 345 74 73 -3
102 -2 75 3 -110 19 -306 2 -373 -32 -28 -14 -77 -60 -77 -71 0 -5 5 -6 10 -3
16 10 11 -1 -7 -16 -15 -12 -16 -12 -8 1 8 13 7 13 -8 1 -20 -16 -23 -36 -4
-25 7 4 9 3 4 -2 -5 -5 -14 -9 -19 -9 -6 0 -13 -6 -16 -14 -3 -9 0 -11 8 -6 9
5 11 4 6 -4 -4 -6 -12 -9 -17 -6 -12 8 -50 -56 -44 -73 3 -7 1 -10 -5 -7 -5 3
-17 -9 -27 -27 -14 -27 -18 -59 -19 -168 -1 -78 -9 -175 -19 -229 -19 -105
-16 -162 15 -351 11 -63 22 -149 26 -190 3 -41 14 -120 25 -175 10 -55 21
-111 23 -125 3 -14 3 4 1 40 -3 52 -2 58 5 30 14 -55 30 -265 34 -449 l5 -166
-9 160 c-6 88 -14 205 -19 260 l-10 100 5 -100 c2 -55 7 -171 11 -258 5 -125
10 -162 22 -176 11 -11 13 -12 6 -1 -6 10 -2 8 13 -4 23 -20 30 -32 12 -21
-13 8 -13 2 2 -30 7 -17 14 -22 19 -14 4 7 13 -14 20 -46 10 -45 10 -60 1 -63
-7 -2 -12 -8 -12 -13 0 -6 6 -7 13 -3 6 4 3 -2 -7 -14 -23 -26 -34 -30 -15 -4
13 15 12 16 -4 3 -10 -8 -22 -22 -28 -32 -15 -29 14 -86 56 -110 21 -13 35
-29 35 -41 0 -12 4 -17 13 -12 7 4 9 3 4 -2 -5 -5 -14 -9 -20 -9 -5 0 -12 -6
-15 -14 -3 -9 0 -11 9 -6 8 5 11 4 6 -1 -5 -5 -14 -9 -19 -9 -6 0 -13 -6 -16
-14 -3 -9 0 -11 9 -6 8 5 5 -1 -5 -13 -23 -26 -34 -29 -15 -5 8 10 -9 -3 -36
-28 -43 -38 -59 -47 -103 -52 -56 -6 -175 -37 -169 -43 2 -2 39 5 82 16 43 11
90 20 105 20 15 0 47 14 71 32 24 17 38 24 30 15 -24 -30 -75 -54 -129 -61
-75 -10 -179 -43 -224 -73 l-38 -26 -73 33 c-64 29 -82 33 -167 34 -52 1 -106
-3 -119 -8 -18 -6 -22 -5 -16 5 5 8 -6 1 -23 -15 -18 -17 -31 -39 -31 -50 2
-20 2 -20 6 0 2 12 14 30 26 40 l22 19 -19 -23 c-16 -18 -20 -38 -19 -100 0
-43 3 -89 7 -102 6 -19 5 -21 -3 -10 -6 8 -11 26 -12 40 -2 22 -2 22 -6 4 -5
-27 31 -106 60 -131 21 -18 21 -18 7 2 -15 20 -14 20 8 1 23 -20 30 -32 11
-20 -25 15 1 -19 90 -120 109 -122 160 -167 256 -226 89 -54 244 -130 264
-129 9 0 0 6 -19 13 -150 56 -310 160 -420 273 l-95 98 100 -97 c124 -119 293
-223 442 -272 29 -10 56 -22 59 -28 4 -6 -1 -6 -14 1 -26 14 -43 14 -19 0 20
-12 23 -35 5 -43 -7 -4 -3 -4 10 -2 45 8 10 -13 -39 -23 -28 -6 -60 -16 -71
-22 -15 -8 -18 -8 -14 0 4 6 28 17 54 25 26 8 39 15 29 15 -50 2 -135 -64
-123 -96 3 -7 0 -12 -6 -10 -6 1 -15 -12 -20 -28 -11 -34 19 -142 39 -138 6 1
19 -8 29 -20 l19 -22 -22 19 c-13 11 -23 16 -23 11 0 -22 35 -30 110 -24 65 4
85 10 107 29 l28 24 -27 -29 c-23 -25 -37 -30 -100 -36 l-73 -7 72 2 c68 1 75
4 108 36 32 31 60 93 67 150 3 22 9 26 53 31 l50 7 -57 -2 c-79 -2 -63 10 22
16 51 4 74 10 83 22 12 16 16 16 66 -4 30 -11 55 -19 58 -17 8 9 -116 49 -129
42 -10 -6 -10 -5 -1 5 12 14 -6 20 843 -302 173 -66 450 -168 615 -228 390
-140 510 -187 527 -207 7 -9 8 -14 2 -10 -19 11 -26 -51 -8 -84 8 -16 19 -27
24 -24 5 3 12 0 16 -6 5 -8 3 -9 -6 -4 -8 5 -11 3 -8 -6 3 -8 10 -14 16 -14 5
0 14 -4 19 -9 5 -5 3 -6 -4 -2 -9 5 -13 -1 -13 -19 0 -17 4 -24 12 -19 7 4 8
3 4 -5 -4 -6 -11 -9 -16 -6 -10 6 -60 -75 -59 -96 0 -8 3 -7 8 5 4 11 7 -1 7
-34 l0 -53 -12 34 c-7 19 -13 28 -13 21 -2 -23 29 -86 55 -113 24 -25 31 -27
114 -26 80 0 92 2 111 23 12 13 18 28 14 35 -5 7 -4 10 3 5 13 -8 22 6 33 53
6 29 3 47 -17 92 -21 45 -24 61 -15 77 14 27 14 35 -1 26 -7 -4 -5 1 4 11 16
17 22 16 147 -34 l130 -52 300 3 299 3 83 42 c46 23 75 35 64 27 -11 -9 -49
-30 -85 -48 l-65 -31 -298 -3 -298 -3 -126 51 c-69 27 -131 50 -137 50 -6 -1
50 -25 124 -55 l135 -55 301 2 300 3 76 38 c127 62 161 125 117 214 -14 29
-40 59 -64 75 -40 28 -222 101 -280 113 -16 3 19 -12 78 -34 128 -47 210 -85
228 -108 8 -9 -4 -5 -26 10 -81 52 -293 124 -462 156 -148 29 -315 79 -338
103 -11 11 -14 18 -7 14 6 -4 12 -3 12 2 0 6 -7 12 -15 16 -12 4 -15 30 -15
146 0 77 2 140 5 140 3 0 19 -16 36 -35 17 -19 36 -35 41 -35 6 0 2 8 -9 17
-10 10 -14 15 -9 10 6 -4 14 -7 18 -7 13 0 8 73 -7 100 -8 14 -14 30 -14 35 0
29 38 -66 40 -100 2 -39 2 -39 6 -6 3 20 -4 53 -18 85 -19 44 -20 57 -11 96
21 87 22 117 9 149 -7 17 -18 28 -23 24 -5 -4 9 11 31 35 46 49 62 57 19 9
-16 -18 -10 -14 14 9 48 49 50 60 22 159 -11 39 -18 55 -15 36 6 -41 -2 -37
-15 8 -6 22 -5 31 3 32 7 0 38 30 70 66 55 63 57 67 57 122 0 56 -1 57 -57
111 l-58 55 53 -55 c49 -52 52 -59 52 -106 0 -30 -6 -58 -16 -70 -15 -18 -15
-18 -5 3 6 12 11 43 11 70 0 44 -4 51 -57 107 -32 32 -53 56 -47 52 7 -3 15 5
18 20 4 14 29 82 56 151 54 136 57 147 35 117 -8 -10 -15 -16 -15 -12 0 4 11
19 24 33 13 14 35 63 49 108 22 70 27 114 37 307 11 221 24 381 35 430 l6 25
-12 -25 c-14 -33 -25 -154 -40 -428 -6 -123 -15 -236 -20 -250 -7 -22 -8 -20
-4 13 2 22 7 92 10 155 15 296 27 449 42 500 20 71 19 131 -1 200 -9 30 -12
50 -7 45 5 -6 16 -37 24 -70 9 -33 16 -51 16 -40 1 11 -6 42 -14 69 -8 28 -12
58 -9 69 4 13 2 17 -5 13 -17 -11 -13 0 6 15 15 12 16 12 8 -1 -8 -13 -7 -13
8 -1 9 7 17 21 17 30 0 13 -2 13 -9 2 -11 -17 -26 126 -18 167 5 26 -1 69 -18
137 -4 17 -5 28 -2 24 4 -3 13 -30 21 -60 8 -29 15 -44 15 -32 2 53 -72 229
-91 217 -7 -4 -8 -3 -4 4 9 14 -12 55 -24 47 -5 -3 -12 0 -16 6 -4 8 -3 9 4 5
7 -4 12 -3 12 3 0 22 -218 191 -247 191 -8 0 -22 19 -32 43 -20 45 -47 73 -96
101 -30 17 -30 17 -5 -1 54 -40 72 -62 23 -28 -45 32 -89 72 -55 51 16 -10 15
3 -3 54 -11 31 -15 85 -15 194 0 89 -8 216 -20 311 -11 88 -21 180 -22 205 -1
43 -2 42 -8 -15 -5 -42 -7 -49 -8 -24 -1 20 -4 65 -6 100 -4 50 -3 55 3 24 l8
-40 2 48 c1 36 -2 46 -11 41 -34 -19 55 64 112 104 l64 47 103 5 c56 3 99 2
95 -2 -4 -3 -50 -8 -102 -10 l-96 -3 -64 -46 c-36 -26 -74 -57 -85 -70 -11
-12 9 1 45 29 91 73 114 82 212 82 98 0 110 8 134 86 17 58 18 67 2 58 -10 -6
-9 -3 0 8 14 18 176 74 470 163 129 38 201 55 240 55 32 0 95 4 141 10 73 8
99 17 213 75 181 91 281 153 443 275 399 302 558 409 605 410 8 0 44 -14 80
-31 60 -28 74 -31 175 -31 100 -1 116 2 170 27 33 15 86 31 119 35 37 6 68 17
85 32 l26 22 -25 -27 c-20 -21 -41 -30 -89 -38 -54 -8 -134 -37 -108 -39 5 0
16 4 26 10 10 5 46 14 81 19 96 16 160 85 113 122 -15 12 -16 12 -8 -1 5 -9 0
-8 -13 4 -25 21 -31 36 -7 16 8 -7 15 -8 15 -2 0 12 -25 34 -32 27 -3 -3 -11
3 -19 12 -7 10 -10 15 -5 11 4 -3 16 2 26 12 11 11 85 40 165 65 81 26 145 48
143 50 -6 6 -268 -79 -305 -98 -18 -10 -33 -15 -33 -12 0 11 84 46 210 85 74
23 171 60 215 82 44 22 76 35 70 30 -5 -6 -41 -26 -80 -46 -38 -19 -66 -35
-61 -36 11 0 115 53 163 84 70 44 87 70 89 136 1 33 -1 62 -5 64 -10 7 -73
-16 -178 -63 -48 -22 -99 -41 -113 -44 -14 -2 -19 -2 -12 0 6 3 12 9 12 14 0
6 4 7 10 4 5 -3 60 17 122 44 62 28 108 51 101 51 -6 0 -57 -21 -113 -46 -56
-25 -104 -44 -107 -41 -2 3 1 15 7 27 6 11 9 31 7 43 -4 19 -4 18 -6 -5 0 -15
-5 -29 -9 -32 -5 -3 -6 8 -4 24 4 29 4 30 -41 28 -31 -2 -58 -11 -86 -31z
m-5126 -3376 c0 -20 441 -331 469 -331 5 0 -32 26 -83 58 -90 55 -343 239
-365 264 -14 16 -7 10 120 -85 157 -118 295 -205 370 -233 53 -20 99 -28 199
-35 147 -10 254 -30 482 -90 211 -56 269 -57 415 -6 120 42 127 43 154 21 18
-14 18 -15 -4 -4 -13 6 -31 9 -40 7 -13 -4 -12 -5 4 -6 43 -2 50 -26 30 -102
-14 -56 -19 -138 -26 -431 -11 -432 -12 -451 -20 -328 l-6 95 -2 -93 c-3 -121
-26 -222 -69 -300 -84 -152 -114 -313 -109 -578 3 -182 13 -243 36 -229 5 3
12 0 16 -6 4 -8 3 -9 -4 -5 -8 5 -12 0 -12 -12 0 -11 -7 -36 -15 -55 -10 -24
-15 -70 -15 -137 0 -82 -3 -102 -16 -107 -8 -3 -72 15 -141 41 -69 26 -127 45
-130 43 -5 -5 225 -90 267 -98 30 -6 31 -7 8 -8 -15 0 -100 26 -190 60 -90 33
-275 103 -413 154 -137 51 -308 116 -380 145 -264 105 -303 120 -430 165 -369
131 -538 195 -532 202 3 2 15 0 26 -6 12 -7 32 -8 48 -4 27 7 27 8 -12 14 -55
10 119 0 234 -12 89 -10 95 -10 125 11 l31 21 -29 -26 c-27 -25 -35 -27 -80
-21 -28 3 -94 8 -146 10 -100 5 -90 3 82 -15 96 -9 110 -9 137 7 43 25 51 53
51 169 0 94 2 105 20 115 29 15 47 57 53 120 2 30 2 44 0 30 -3 -14 -8 -29
-12 -33 -10 -10 2 68 24 171 17 76 30 98 20 35 -3 -21 4 -7 15 31 22 74 17
109 -18 138 -12 10 -14 10 -8 1 11 -19 1 -16 -15 4 -10 11 -10 14 -1 9 6 -4
12 -3 12 2 0 12 -25 33 -32 27 -3 -3 -11 2 -19 12 -8 9 -9 14 -2 10 13 -8 9
31 -12 148 -13 68 -64 224 -65 196 0 -27 -11 -3 -25 55 -8 38 -13 121 -13 234
1 96 -2 222 -5 280 -5 86 -4 94 4 45 5 -33 10 -161 11 -285 1 -154 5 -238 15
-270 8 -30 11 -33 6 -10 -3 19 -7 133 -9 253 -1 120 -8 272 -14 337 -7 65 -10
139 -8 164 4 32 2 44 -6 39 -6 -4 -5 1 3 10 15 19 26 23 15 6 -4 -7 -1 -10 7
-7 8 3 13 12 11 19 -2 8 0 10 5 6 4 -5 8 -12 8 -16z"/>
</g>
</svg>
